<svg xmlns="http://www.w3.org/2000/svg" width="25" height="25" id="search">
  <g fill="#fff" transform="translate(4.674 -1032.052)">
    <circle cx="7.826" cy="1044.552" r="12.5" fill="#1d67b1"></circle>
    <path d="M7.092.996a4.973 4.973 0 0 0-2.602.68 5.009 5.009 0 0 0-1.797 6.84c1.121 1.92 3.329 2.752 5.393 2.295l2.42 4.144a1.51 1.51 0 0 0 2.053.54 1.51 1.51 0 0 0 .539-2.054l-2.42-4.144c1.413-1.572 1.773-3.904.652-5.824A5.005 5.005 0 0 0 7.092.996Zm-.012.994a3.995 3.995 0 0 1 3.387 1.989 3.987 3.987 0 0 1-.727 4.925l-.29.272 2.782 4.771a.488.488 0 0 1-.18.684.488.488 0 0 1-.683-.18L8.584 9.68l-.379.119a3.989 3.989 0 0 1-4.648-1.787 3.994 3.994 0 0 1 1.437-5.473A4.008 4.008 0 0 1 7.08 1.99Zm.443 1.135a.5.5 0 0 0-.242.055.5.5 0 0 0 .08.924c.678.22 1.229.718 1.516 1.37a.5.5 0 1 0 .916-.402 3.502 3.502 0 0 0-2.123-1.92.5.5 0 0 0-.147-.027Z" color="#000" font-family="sans-serif" font-weight="400" overflow="visible" style="line-height:normal;text-indent:0;text-align:start;text-decoration-line:none;text-decoration-style:solid;text-decoration-color:#000;text-transform:none;block-progression:tb;isolation:auto;mix-blend-mode:normal" transform="translate(.313 1036.056)"></path>
  </g>
</svg>
